# AST/ASF file generated using VICON BodyLanguage
# -----------------------------------------------
:version 1.10
:name VICON
:units
  mass 1.0
  length 0.45
  angle deg
:documentation
   .ast/.asf automatically generated from VICON data using
   VICON BodyBuilder and BodyLanguage model FoxedUp or BRILLIANT.MOD
:root
   order TX TY TZ RX RY RZ
   axis XYZ
   position 0 0 0  
   orientation 0 -0 0 
:bonedata
  begin
     id 1 
     name lhipjoint
     direction 0.432694 -0.693742 0.575759 
     length 2.19277 
     axis 0 -0 0  XYZ
  end
  begin
     id 2 
     name lfemur
     direction 0.34202 -0.939693 0  
     length 6.69022  
     axis 0 -0 20  XYZ
    dof rx ry rz
    limits (-160.0 20.0)
           (-70.0 70.0)
           (-60.0 70.0)
  end
  begin
     id 3 
     name ltibia
     direction 0.34202 -0.939693 0   
     length 6.50337   
     axis 0 -0 20   XYZ
    dof rx
    limits (-10.0 170.0)
  end
  begin
     id 4 
     name lfoot
     direction 0.158999 -0.435969 0.885805   
     length 2.70564   
     axis -90 -1.13533e-015 20   XYZ
    dof rx rz
    limits (-45.0 90.0)
           (-70.0 20.0)
  end
  begin
     id 5 
     name ltoes
     direction -0.00592919 0.00964381 0.999936   
     length 1.29929   
     axis -90 -1.13533e-015 20   XYZ
    dof rx
    limits (-90.0 20.0)
  end
  begin
     id 6 
     name rhipjoint
     direction -0.414359 -0.700339 0.581234   
     length 2.17212  
     axis 0 -0 0  XYZ 
  end
  begin
     id 7 
     name rfemur
     direction -0.34202 -0.939693 0   
     length 7.17659   
     axis 0 -0 -20   XYZ
    dof rx ry rz
    limits (-160.0 20.0)
           (-70.0 70.0)
           (-70.0 60.0)
  end
  begin
     id 8 
     name rtibia
     direction -0.34202 -0.939693 0   
     length 6.36669   
     axis 0 -0 -20   XYZ
    dof rx
    limits (-10.0 170.0)
 end
 begin
     id 9 
     name rfoot
     direction -0.137064 -0.37658 0.916188   
     length 2.22351  
     axis -90 1.13533e-015 -20   XYZ
    dof rx rz
    limits (-45.0 90.0)
           (-20.0 70.0)
  end
  begin
     id 10 
     name rtoes
     direction -0.000784077 -0.00289101 0.999996   
     length 1.09522   
     axis -90 1.13533e-015 -20   XYZ
    dof rx
    limits (-90.0 20.0)
  end
  begin
     id 11 
     name lowerback
     direction -0.0176242 0.984912 -0.172157   
     length 1.65301   
     axis 0 -0 0   XYZ
    dof rx ry rz
    limits (-20.0 45.0)
           (-30.0 30.0)
           (-30.0 30.0)
  end
  begin
     id 12 
     name upperback
     direction -0.00218128 0.998776 -0.0494072   
     length 1.67776   
     axis 0 -0 0   XYZ
    dof rx ry rz
    limits (-20.0 45.0)
           (-30.0 30.0)
           (-30.0 30.0)
  end
  begin
     id 13 
     name thorax
     direction 0.00544186 0.999658 0.0255711   
     length 1.72293   
     axis 0 -0 0   XYZ
    dof rx ry rz
    limits (-20.0 45.0)
           (-30.0 30.0)
           (-30.0 30.0)
  end
  begin
     id 14 
     name lowerneck
     direction -0.105325 0.983841 0.144785   
     length 2.14226   
     axis 0 -0 0   XYZ
    dof rx ry rz
    limits (-20.0 45.0)
           (-30.0 30.0)
           (-30.0 30.0)
  end
  begin
     id 15 
     name upperneck
     direction 0.0547957 0.988053 -0.144041   
     length 2.17508   
     axis 0 -0 0   XYZ
    dof rx ry rz
    limits (-20.0 45.0)
           (-30.0 30.0)
           (-30.0 30.0)
  end
  begin
     id 16
     name head
     direction 0.0247488 0.997534 -0.0656813  
     length 2.20048  
     axis 0 -0 0   XYZ
    dof rx ry rz
    limits (-20.0 45.0)
           (-30.0 30.0)
           (-30.0 30.0)
  end
  begin
     id 17 
     name lclavicle
     direction 0.820559 0.567247 -0.0701026  
     length 4.09615  
     axis 0 -0 0   XYZ
    dof ry rz
    limits (-20.0 10.0)
           (0.0 20.0)
  end
  begin
     id 18 
     name lhumerus
     direction 0.999977 -0.0067566 -9.96392e-005   
     length 4.59333   
     axis -180 -30 -90   XYZ
    dof rx ry rz
    limits (-60.0 90.0)
           (-90.0 90.0)
           (-90.0 90.0)
  end
  begin
     id 19
     name lradius
     direction 1 -4.48982e-011 -2.53425e-027   
     length 2.81151   
     axis -180 -30 -90   XYZ
    dof rx
    limits (-10.0 170.0)
  end
  begin
     id 20
     name lwrist
     direction 1 -4.48939e-011 -7.39254e-028   
     length 1.40576   
     axis 2.56395e-016 90 90   XYZ
    dof ry
    limits (-180.0 0.0)
 end
  begin
     id 21 
     name lhand
     direction 1 -4.48939e-011 -1.47851e-027   
     length 0.895651   
     axis 9.43423e-016 90 90   XYZ
    dof rx rz
    limits (-90.0 90.0)
           (-45.0 45.0)
  end
  begin
     id 22 
     name lfingers
     direction 1 -4.48978e-011 -2.95702e-027   
     length 0.722097   
     axis 1.88685e-015 90 90   XYZ
    dof rx
    limits (0.0 90.0)
  end
  begin
     id 23
     name lthumb
     direction 0.707107 -6.34931e-011 0.707107   
     length 1.03679   
     axis -90 45 -9.86935e-015   XYZ
    dof rx rz
    limits (-45.0 45.0)
           (-45.0 45.0)
  end
  begin
     id 24 
     name rclavicle
     direction -0.831414 0.553102 -0.0531864   
     length 4.24872  
     axis 0 -0 0   XYZ 
    dof ry rz
    limits (-10.0 20.0)
           (-20.0 0.0)
  end
  begin
     id 25 
     name rhumerus
     direction -0.999916 -0.000939607 0.0129331  
     length 4.74834   
     axis -180 30 90   XYZ
    dof rx ry rz
    limits (-90.0 60.0)
           (-90.0 90.0)
           (-90.0 90.0)
  end
  begin
     id 26 
     name rradius
     direction -1 -4.48956e-011 -1.31752e-027   
     length 2.79907   
     axis -180 30 90   XYZ
    dof rx
    limits (-10.0 170.0)
  end
  begin
     id 27 
     name rwrist
     direction -1 -4.4897e-011 -7.39254e-028   
     length 1.39954   
     axis 2.56395e-016 -90 -90   XYZ
    dof ry
    limits (-180.0 0.0)
  end
  begin
     id 28
     name rhand
     direction -0.999997 -0.00250697 0.000800838   
     length 0.953304   
     axis 9.43423e-016 -90 -90   XYZ
    dof rx rz
    limits (-90.0 90.0)
           (-45.0 45.0)
  end
  begin
     id 29
     name rfingers
     direction -1 -4.48954e-011 -2.95702e-027   
     length 0.763342   
     axis 1.88685e-015 -90 -90   XYZ
    dof rx
    limits (0.0 90.0)
  end
  begin
     id 30
     name rthumb
     direction -0.709701 -0.00217037 0.7045   
     length 1.10115   
     axis -90 -45 9.86935e-015   XYZ
    dof rx rz
    limits (-45.0 45.0)
           (-45.0 45.0)
  end
:hierarchy
  begin
    root lhipjoint rhipjoint lowerback
    lhipjoint lfemur
    lfemur ltibia
    ltibia lfoot
    lfoot ltoes
    rhipjoint rfemur
    rfemur rtibia
    rtibia rfoot
    rfoot rtoes
    lowerback upperback
    upperback thorax
    thorax lowerneck lclavicle rclavicle
    lowerneck upperneck
    upperneck head
    lclavicle lhumerus
    lhumerus lradius
    lradius lwrist
    lwrist lhand lthumb
    lhand lfingers
    rclavicle rhumerus
    rhumerus rradius
    rradius rwrist
    rwrist rhand rthumb
    rhand rfingers
  end

#!OML:ASF G:\ViconDB\ViconDB\414\test\team2\shane.ASF
:FULLY-SPECIFIED
:DEGREES
1
root 2.39561 16.5721 -32.4493 -6.37487 -6.19201 -2.90293
lowerback 8.5205 4.08022 3.65927
upperback 4.41337 5.68284 -0.107874
thorax 0.185663 2.90751 -2.59897
lowerneck -15.9807 -6.37323 -6.88005
upperneck 19.027 -9.45102 10.4686
head 9.49192 -3.82076 3.49587
rclavicle -5.51627e-015 6.36111e-015
rhumerus -14.1558 22.0298 -101.158
rradius 41.0944
rwrist 29.2188
rhand -31.2883 -14.3009
rfingers 7.12502
rthumb -4.56153 -44.2318
lclavicle -5.51627e-015 6.36111e-015
lhumerus -49.3468 -21.7207 92.5279
lradius 26.8625
lwrist -12.2256
lhand -38.5419 7.95695
lfingers 7.12502
lthumb -11.5619 37.618
rfemur 24.6109 -6.12252 21.9705
rtibia 7.48991
rfoot -19.3208 -3.73934
rtoes -16.0432
lfemur -22.2353 7.16526 -7.43464
ltibia 38.477
lfoot -28.5465 -11.5588
ltoes -14.1025
2
root 2.39561 16.5752 -32.3383 -6.25504 -6.41263 -2.94876
lowerback 8.52891 4.36497 3.81169
upperback 4.26075 6.07373 -0.362274
thorax 0.0959029 3.10491 -2.97799
lowerneck -15.9172 -6.61516 -6.8906
upperneck 19.1696 -9.89872 10.8536
head 9.59848 -3.98716 3.56949
rclavicle -5.11374e-014 2.78299e-015
rhumerus -13.9579 21.8509 -101.107
rradius 41.1421
rwrist 30.1066
rhand -31.2744 -14.0079
rfingers 7.12502
rthumb -4.54809 -43.9391
lclavicle -5.11374e-014 2.78299e-015
lhumerus -49.7575 -21.7623 92.1714
lradius 26.7765
lwrist -11.5748
lhand -38.6234 7.24855
lfingers 7.12502
lthumb -11.6405 36.9052
rfemur 27.1088 -6.10427 22.0803
rtibia 2.56748
rfoot -16.6856 -3.2862
rtoes -16.5298
lfemur -22.7005 7.51178 -7.58798
ltibia 37.6409
lfoot -28.953 -11.2375
ltoes -14.1664
3
root 2.39328 16.5704 -32.2341 -6.07886 -5.96547 -3.18088
lowerback 8.44449 4.36785 3.9423
upperback 4.15821 6.08662 -0.368523
thorax 0.0516029 3.11106 -3.05492
lowerneck -15.7851 -6.87897 -7.41933
upperneck 19.2306 -10.265 11.3381
head 9.69154 -4.14785 3.77632
rclavicle -4.45278e-014 -3.18055e-015
rhumerus -13.8954 22.4989 -100.774
rradius 41.4279
rwrist 29.9256
rhand -31.6663 -14.1279
rfingers 7.12502
rthumb -4.92651 -44.0506
lclavicle -4.45278e-014 -3.18055e-015
lhumerus -50.2487 -21.4263 92.075
lradius 26.9279
lwrist -10.949
lhand -38.8651 6.73204
lfingers 7.12502
lthumb -11.8735 36.3754
rfemur 28.5356 -6.66082 22.2448
rtibia -1.59028e-014
rfoot -15.6147 -2.99463
rtoes -16.4849
lfemur -23.5612 7.9597 -7.71061
ltibia 37.1265
lfoot -29.2737 -11.5478
ltoes -14.0211
4
root 2.40123 16.5653 -32.1188 -5.90566 -5.73254 -3.22342
lowerback 8.32753 4.46042 4.12822
upperback 4.03434 6.22018 -0.54261
thorax 0.0387789 3.18089 -3.33991
lowerneck -15.7358 -7.13761 -7.73115
upperneck 19.3869 -10.6791 11.7817
head 9.82905 -4.31336 3.92508
rclavicle -5.69518e-014 1.27222e-014
rhumerus -13.8288 22.73 -100.514
rradius 41.6713
rwrist 30.5237
rhand -31.2394 -13.81
rfingers 7.12502
rthumb -4.51429 -43.7419
lclavicle -5.69518e-014 1.27222e-014
lhumerus -50.3482 -20.8206 91.5144
lradius 26.7413
lwrist -11.4719
lhand -38.8171 7.72968
lfingers 7.12502
lthumb -11.8273 37.3757
rfemur 28.7958 -6.82414 22.1226
rtibia 1.01778e-013
rfoot -15.9133 -2.75255
rtoes -16.5787
lfemur -24.2703 8.11181 -8.02181
ltibia 36.6542
lfoot -29.5285 -11.2057
ltoes -14.092
5
root 2.40687 16.5506 -32.0069 -5.78205 -5.4673 -3.38082
lowerback 8.25542 4.5475 4.29825
upperback 3.95723 6.34672 -0.62556
thorax 0.0384813 3.2467 -3.52346
lowerneck -15.7138 -7.38528 -8.04986
upperneck 19.54 -11.0699 12.1981
head 9.97076 -4.47014 4.06817
rclavicle 2.93207e-015 -3.97569e-016
rhumerus -13.7624 22.9504 -100.203
rradius 41.8248
rwrist 30.9073
rhand -31.7567 -14.172
rfingers 7.12502
rthumb -5.01379 -44.0927
lclavicle 2.93207e-015 -3.97569e-016
lhumerus -50.7128 -20.766 91.4267
lradius 26.7448
lwrist -10.4116
lhand -38.9908 6.41176
lfingers 7.12502
lthumb -11.9948 36.0481
rfemur 29.121 -7.04665 22.1273
rtibia -2.8625e-014
rfoot -16.3297 -2.63757
rtoes -16.8142
lfemur -24.9781 8.31521 -8.22168
ltibia 36.4009
lfoot -29.6645 -10.9017
ltoes -13.9092
6
root 2.41121 16.5312 -31.8998 -5.64756 -5.10503 -3.45842
lowerback 8.25211 4.60159 4.43002
upperback 3.88874 6.42844 -0.789292
thorax 0.0114252 3.28995 -3.77218
lowerneck -15.6447 -7.66203 -8.3233
upperneck 19.5139 -11.5155 12.6894
head 10.0536 -4.64774 4.2199
rclavicle 6.19214e-014 7.15625e-015
rhumerus -13.6718 23.2354 -99.8785
rradius 42.0141
rwrist 31.0289
rhand -31.9223 -13.8567
rfingers 7.12502
rthumb -5.17367 -43.7736
lclavicle 6.19214e-014 7.15625e-015
lhumerus -50.7369 -20.2642 90.8552
lradius 26.8319
lwrist -11.0842
lhand -38.6768 7.53468
lfingers 7.12502
lthumb -11.692 37.1884
rfemur 29.4004 -7.3681 22.0699
rtibia -2.22639e-014
rfoot -16.656 -2.70331
rtoes -17.5548
lfemur -25.7476 8.74083 -8.58445
ltibia 36.317
lfoot -29.8402 -10.7067
ltoes -13.6615
7
root 2.41987 16.5005 -31.7882 -5.57171 -4.81661 -3.63335
lowerback 8.11145 4.6609 4.68526
upperback 3.93334 6.51867 -0.899089
thorax 0.187147 3.34656 -4.01343
lowerneck -15.5424 -7.91779 -8.67156
upperneck 19.3871 -11.9189 13.2463
head 10.1032 -4.80921 4.41312
rclavicle -7.95139e-014 1.74931e-014
rhumerus -13.5436 23.806 -99.5253
rradius 42.3427
rwrist 30.8198
rhand -31.732 -13.9078
rfingers 7.12502
rthumb -4.99 -43.829
lclavicle -7.95139e-014 1.74931e-014
lhumerus -50.7294 -20.0428 90.5822
lradius 26.8618
lwrist -10.4629
lhand -38.8316 7.45755
lfingers 7.12502
lthumb -11.8413 37.1028
rfemur 29.8183 -7.59616 22.0505
rtibia 1.59028e-014
rfoot -17.2031 -2.52014
rtoes -17.0834
lfemur -26.4159 9.0647 -8.82269
ltibia 36.3983
lfoot -29.8342 -10.2779
ltoes -13.6474
8
root 2.42949 16.4674 -31.6739 -5.48209 -4.58716 -3.85454
lowerback 8.05878 4.71844 5.04146
upperback 3.92097 6.61796 -1.04416
thorax 0.274077 3.40663 -4.35847
lowerneck -15.3567 -8.12095 -8.89309
upperneck 19.1738 -12.2561 13.7314
head 10.0881 -4.94528 4.57068
rclavicle -1.28216e-014 -3.18055e-015
rhumerus -13.5011 24.1529 -99.2324
rradius 42.4975
rwrist 30.9511
rhand -32.0203 -13.8635
rfingers 7.12502
rthumb -5.26831 -43.778
lclavicle -1.28216e-014 -3.18055e-015
lhumerus -50.7226 -19.6257 90.0604
lradius 26.8864
lwrist -10.392
lhand -38.6434 7.2697
lfingers 7.12502
lthumb -11.6598 36.9253
rfemur 30.2125 -7.79384 22.1284
rtibia 2.22639e-014
rfoot -17.6878 -2.5524
rtoes -17.3329
lfemur -27.0304 9.4932 -9.01857
ltibia 36.6224
lfoot -29.8337 -10.027
ltoes -13.7017
9
root 2.43908 16.433 -31.5592 -5.4168 -4.33306 -3.79722
lowerback 8.02229 4.83705 4.9838
upperback 3.96513 6.76874 -1.1628
thorax 0.36512 3.48695 -4.45002
lowerneck -15.2457 -8.39863 -9.21461
upperneck 18.8906 -12.6569 14.2056
head 10.0802 -5.11852 4.72647
rclavicle -1.30204e-014 2.06736e-014
rhumerus -13.4185 24.5491 -98.6945
rradius 42.7493
rwrist 30.9334
rhand -32.0069 -13.7741
rfingers 7.12502
rthumb -5.25535 -43.6889
lclavicle -1.30204e-014 2.06736e-014
lhumerus -50.5868 -19.4224 89.8429
lradius 26.8505
lwrist -10.4963
lhand -38.7615 7.66726
lfingers 7.12502
lthumb -11.7737 37.3163
rfemur 30.6225 -7.97767 21.909
rtibia -6.67916e-014
rfoot -18.148 -2.61902
rtoes -18.0442
lfemur -27.6109 9.87438 -9.48364
ltibia 36.962
lfoot -29.7162 -10.0595
ltoes -13.379
10
root 2.4508 16.3941 -31.4405 -5.34123 -4.13425 -3.95517
lowerback 7.98437 4.91903 5.28616
upperback 3.95993 6.897 -1.34627
thorax 0.456754 3.56233 -4.80705
lowerneck -15.1142 -8.62869 -9.40965
upperneck 18.7239 -13.0446 14.7008
head 10.1049 -5.27259 4.87354
rclavicle -8.47817e-014 2.62396e-014
rhumerus -13.4199 24.9625 -98.3948
rradius 43.0096
rwrist 30.623
rhand -31.8257 -13.6382
rfingers 7.12502
rthumb -5.08045 -43.5573
lclavicle -8.47817e-014 2.62396e-014
lhumerus -50.6392 -19.334 89.5225
lradius 27.1411
lwrist -10.0586
lhand -38.4 7.84564
lfingers 7.12502
lthumb -11.4251 37.5143
rfemur 31.045 -8.12157 21.9009
rtibia 6.04305e-014
rfoot -18.6631 -2.71675
rtoes -18.1277
lfemur -28.1173 10.2934 -9.73684
ltibia 37.402
lfoot -29.5247 -9.97907
ltoes -12.8235
11
root 2.46895 16.3511 -31.3209 -5.25004 -3.96659 -4.04382
lowerback 7.98838 5.01248 5.53834
upperback 3.94746 7.03925 -1.489
thorax 0.510203 3.64212 -5.09995
lowerneck -14.8439 -8.85135 -9.50343
upperneck 18.3817 -13.3721 14.9643
head 10.0082 -5.42819 4.93028
rclavicle -9.3727e-014 2.46493e-014
rhumerus -13.5432 25.3965 -98.0045
rradius 43.2075
rwrist 30.3854
rhand -32.0178 -13.6611
rfingers 7.12502
rthumb -5.26595 -43.5757
lclavicle -9.3727e-014 2.46493e-014
lhumerus -50.5462 -19.2033 89.3443
lradius 27.2452
lwrist -9.94177
lhand -38.3732 7.32826
lfingers 7.12502
lthumb -11.3992 36.9984
rfemur 31.4695 -8.20953 21.8022
rtibia 0
rfoot -19.172 -2.66809
rtoes -18.043
lfemur -28.5386 10.4288 -10.0097
ltibia 37.8996
lfoot -29.4527 -9.78473
ltoes -13.0959
12
root 2.48904 16.3076 -31.1963 -5.12123 -3.87936 -4.09699
lowerback 7.97051 5.12444 5.88119
upperback 3.86783 7.2124 -1.75317
thorax 0.540327 3.73883 -5.57154
lowerneck -14.5457 -9.08113 -9.60753
upperneck 18.1289 -13.7749 15.4433
head 9.97065 -5.59764 5.05662
rclavicle 9.56154e-014 -9.54166e-015
rhumerus -13.7773 25.8016 -97.8279
rradius 43.3752
rwrist 30.2045
rhand -32.109 -13.835
rfingers 7.12502
rthumb -5.35395 -43.7474
lclavicle 9.56154e-014 -9.54166e-015
lhumerus -50.5868 -19.0984 88.9506
lradius 27.2382
lwrist -10.4552
lhand -38.536 6.93635
lfingers 7.12502
lthumb -11.5562 36.5978
rfemur 31.8539 -8.19962 21.6629
rtibia -3.81667e-014
rfoot -19.5751 -2.54004
rtoes -18.3896
lfemur -28.9065 10.561 -10.2784
ltibia 38.5082
lfoot -29.3553 -9.87661
ltoes -12.6609
13
root 2.50943 16.265 -31.072 -4.89962 -3.67081 -4.33868
lowerback 7.7917 5.21567 6.17461
upperback 3.84019 7.34549 -1.79256
thorax 0.673228 3.81576 -5.76011
lowerneck -14.3446 -9.33299 -9.88969
upperneck 17.8741 -14.1416 15.85
head 9.95523 -5.76602 5.18867
rclavicle -3.4191e-014 9.54166e-015
rhumerus -13.9882 26.3006 -97.3414
rradius 43.5103
rwrist 30.0566
rhand -32.1509 -13.9259
rfingers 7.12502
rthumb -5.39445 -43.8373
lclavicle -3.4191e-014 9.54166e-015
lhumerus -50.4284 -19.0282 88.9946
lradius 27.4404
lwrist -10.1134
lhand -38.343 7.09591
lfingers 7.12502
lthumb -11.3701 36.7677
rfemur 32.1475 -8.3395 21.7397
rtibia -4.13472e-014
rfoot -19.8572 -2.40075
rtoes -18.8392
lfemur -29.3048 10.3219 -10.3246
ltibia 39.1625
lfoot -29.0497 -9.81062
ltoes -12.8999
14
root 2.54246 16.221 -30.9282 -4.93614 -3.79946 -4.04405
lowerback 7.7046 5.40982 6.20933
upperback 3.93271 7.60022 -2.0931
thorax 0.903562 3.96168 -6.08276
lowerneck -14.3145 -9.55621 -9.85994
upperneck 17.6665 -14.4994 16.1056
head 9.95227 -5.91364 5.21101
rclavicle -6.7388e-014 3.18055e-015
rhumerus -14.1049 26.6422 -97.0447
rradius 43.4123
rwrist 30.0135
rhand -32.1766 -13.9367
rfingers 7.12502
rthumb -5.41921 -43.8474
lclavicle -6.7388e-014 3.18055e-015
lhumerus -50.1267 -18.9629 88.8054
lradius 27.3804
lwrist -10.4737
lhand -38.5724 6.88719
lfingers 7.12502
lthumb -11.5914 36.5466
rfemur 32.7505 -8.02678 21.1548
rtibia 4.77083e-014
rfoot -20.2146 -2.31295
rtoes -19.5135
lfemur -29.1543 10.0912 -10.7976
ltibia 39.8948
lfoot -28.7296 -9.94706
ltoes -12.996
15
root 2.57044 16.1771 -30.7901 -4.82764 -3.83939 -4.112
lowerback 7.66496 5.53994 6.53295
upperback 3.86663 7.79487 -2.30336
thorax 0.963272 4.07079 -6.48417
lowerneck -14.0917 -9.73833 -9.95946
upperneck 17.4835 -14.8219 16.5127
head 9.94212 -6.04922 5.32236
rclavicle -6.71892e-014 1.35174e-014
rhumerus -14.4372 26.9646 -96.8843
rradius 43.1967
rwrist 29.9316
rhand -32.3982 -13.9052
rfingers 7.12502
rthumb -5.63317 -43.8104
lclavicle -6.71892e-014 1.35174e-014
lhumerus -49.8132 -18.6998 88.5251
lradius 27.2374
lwrist -10.9153
lhand -38.6883 6.98451
lfingers 7.12502
lthumb -11.7031 36.6376
rfemur 33.1736 -7.85566 20.9883
rtibia 4.77083e-014
rfoot -20.3418 -2.14382
rtoes -20.1159
lfemur -29.1729 9.68883 -10.8602
ltibia 40.6689
lfoot -28.2834 -10.5474
ltoes -12.5479
